<svg id="Layer_1" data-name="Layer 1" xmlns="http://www.w3.org/2000/svg" viewBox="0 0 24.72 24.72"><defs><style>.cls-1{fill:#1e4fad;}.cls-2{fill:#fff;fill-rule:evenodd;}</style></defs><title>fbicon</title><circle class="cls-1" cx="12.36" cy="12.36" r="12.36"/><path class="cls-2" d="M34.43,23.74c0.45,0,.9,0,1.35,0H36V21.4c-0.24,0-.49-0.06-0.74-0.07-0.46,0-.92,0-1.38,0a3.39,3.39,0,0,0-2,.6,2.92,2.92,0,0,0-1.17,2,6.83,6.83,0,0,0-.08,1c0,0.52,0,1,0,1.57v0.2H28.39v2.61h2.22V35.8h2.72V29.25h2.22l0.34-2.62H33.31s0-1.29,0-1.86A1,1,0,0,1,34.43,23.74Z" transform="translate(-20.48 -15.97)"/></svg>