<svg id="Layer_1" data-name="Layer 1" xmlns="http://www.w3.org/2000/svg" xmlns:xlink="http://www.w3.org/1999/xlink" viewBox="0 0 24.72 24.72"><defs><style>.cls-1{fill:url(#linear-gradient);}.cls-2{fill:#fff;}</style><linearGradient id="linear-gradient" x1="24.42" y1="-2.49" x2="4.63" y2="21.89" gradientUnits="userSpaceOnUse"><stop offset="0.01" stop-color="#3542e0"/><stop offset="0.17" stop-color="#3841df"/><stop offset="0.27" stop-color="#403fda"/><stop offset="0.36" stop-color="#4e3cd2"/><stop offset="0.43" stop-color="#6337c7"/><stop offset="0.5" stop-color="#7d31b9"/><stop offset="0.56" stop-color="#9e2aa8"/><stop offset="0.62" stop-color="#c32193"/><stop offset="0.62" stop-color="#c82091"/><stop offset="0.76" stop-color="#f62b37"/><stop offset="1" stop-color="#ffc658"/></linearGradient></defs><title>instaicon</title><circle class="cls-1" cx="12.36" cy="12.36" r="12.36"/><path class="cls-2" d="M95,25.09a3.47,3.47,0,0,0-1.06-2.23,3.63,3.63,0,0,0-2.4-1,47.22,47.22,0,0,0-6.48.07,3.3,3.3,0,0,0-2.83,2.54,36.55,36.55,0,0,0-.07,7.35,3.31,3.31,0,0,0,2.63,2.86,38.81,38.81,0,0,0,7.25,0,3.32,3.32,0,0,0,2.87-2.62A41.13,41.13,0,0,0,95,25.09Zm-1.21,6.54a2.22,2.22,0,0,1-2.08,2,39,39,0,0,1-6.75-.09,2.15,2.15,0,0,1-1.63-1.85,43.84,43.84,0,0,1,0-6.61,2.21,2.21,0,0,1,2.07-2,46.14,46.14,0,0,1,6.45,0,2.22,2.22,0,0,1,2,2.09A47,47,0,0,1,93.78,31.64ZM88.55,25a3.36,3.36,0,1,0,3.36,3.36A3.36,3.36,0,0,0,88.55,25Zm0,5.53a2.17,2.17,0,1,1,2.19-2.15A2.17,2.17,0,0,1,88.53,30.53Zm4.3-5.65A0.79,0.79,0,1,1,92,24.08,0.79,0.79,0,0,1,92.82,24.87Z" transform="translate(-76.06 -15.97)"/><path class="cls-2" d="M95,25.09a3.47,3.47,0,0,0-1.06-2.23,3.63,3.63,0,0,0-2.4-1,47.22,47.22,0,0,0-6.48.07,3.3,3.3,0,0,0-2.83,2.54,36.55,36.55,0,0,0-.07,7.35,3.31,3.31,0,0,0,2.63,2.86,38.81,38.81,0,0,0,7.25,0,3.32,3.32,0,0,0,2.87-2.62A41.13,41.13,0,0,0,95,25.09Zm-1.21,6.54a2.22,2.22,0,0,1-2.08,2,39,39,0,0,1-6.75-.09,2.15,2.15,0,0,1-1.63-1.85,43.84,43.84,0,0,1,0-6.61,2.21,2.21,0,0,1,2.07-2,46.14,46.14,0,0,1,6.45,0,2.22,2.22,0,0,1,2,2.09A47,47,0,0,1,93.78,31.64ZM88.55,25a3.36,3.36,0,1,0,3.36,3.36A3.36,3.36,0,0,0,88.55,25Zm0,5.53a2.17,2.17,0,1,1,2.19-2.15A2.17,2.17,0,0,1,88.53,30.53Zm4.3-5.65A0.79,0.79,0,1,1,92,24.08,0.79,0.79,0,0,1,92.82,24.87Z" transform="translate(-76.06 -15.97)"/></svg>